<svg width="360" height="722" viewBox="0 0 360 722" fill="none" xmlns="http://www.w3.org/2000/svg">
<g clip-path="url(#clip0_1_2)">
<path d="M53.7793 2C24.5389 2 1 25.5389 1 54.7793V669.457C1 698.697 24.5389 722.238 53.7793 722.238H160.742L162.928 719.141H170.239L170.686 714.738V700.738L57 700.238H56.5C39.6553 700.238 26 686.583 26 669.738V669.738V649.238V54.7793V54.7793C26 37.3596 40.1214 23.2382 57.5411 23.2382H58H89V25.2382C89 37.9407 99.2975 48.2382 112 48.2382V48.2382H254.5V48.2382C263.06 48.2382 270 41.2986 270 32.7382V31.2382V27.7382V27.7382C270 25.2529 272.015 23.2382 274.5 23.2382H275H307H307.5C324.345 23.2382 338 36.8935 338 53.7382V53.7382V669.495V669.495C338 686.553 324.316 700.455 307.261 700.726L306.5 700.738H202.5H170.686L170.239 719.141H195.148L197.336 722.238H304.299C333.539 722.238 357.078 698.697 357.078 669.457V54.7793C357.078 25.5389 333.539 2 304.299 2H53.7793Z" fill="black"/>
<path d="M358.295 167.079C359.239 167.079 360 167.838 360 168.782V247.943C360 248.887 359.239 249.648 358.295 249.648H345.164C344.22 249.648 343.459 248.887 343.459 247.943V168.782C343.459 167.838 344.22 167.079 345.164 167.079H358.295Z" fill="black"/>
<g filter="url(#filter0_f_1_2)">
<path d="M357.932 168.599C358.774 168.599 359.452 169.277 359.452 170.119V246.608C359.452 247.449 358.774 248.127 357.932 248.127H357.46V168.599H357.932Z" fill="url(#paint0_linear_1_2)"/>
</g>
<path d="M14.8366 97.7257H1.70463C0.76319 97.7257 0 98.4889 0 99.4303V124.053C0 124.994 0.76319 125.757 1.70463 125.757H14.8366C15.7781 125.757 16.5412 124.994 16.5412 124.053V99.4303C16.5412 98.4889 15.7781 97.7257 14.8366 97.7257Z" fill="black"/>
<g filter="url(#filter1_f_1_2)">
<path d="M2.0675 99.2465C1.2256 99.2465 0.547974 99.9241 0.547974 100.766V122.717C0.547974 123.559 1.2256 124.237 2.0675 124.237H2.54016V99.2465H2.0675Z" fill="url(#paint1_linear_1_2)"/>
</g>
<path d="M1.70508 150.002C0.760712 150.002 0 150.761 0 151.705V200.509C0 201.453 0.760712 202.214 1.70508 202.214H14.8359C15.7803 202.214 16.541 201.453 16.541 200.509V151.705C16.541 150.761 15.7803 150.002 14.8359 150.002H1.70508Z" fill="black"/>
<g filter="url(#filter2_f_1_2)">
<path d="M2.0675 151.522C1.2256 151.522 0.547974 152.199 0.547974 153.041V199.173C0.547974 200.015 1.2256 200.693 2.0675 200.693H2.54016V151.522H2.0675Z" fill="url(#paint2_linear_1_2)"/>
</g>
<path d="M1.70508 215.662C0.760712 215.662 0 216.421 0 217.365V266.169C0 267.113 0.760712 267.874 1.70508 267.874H14.8359C15.7803 267.874 16.541 267.113 16.541 266.169V217.365C16.541 216.421 15.7803 215.662 14.8359 215.662H1.70508Z" fill="black"/>
<g filter="url(#filter3_f_1_2)">
<path d="M2.0675 217.182C1.2256 217.182 0.547974 217.859 0.547974 218.701V264.833C0.547974 265.675 1.2256 266.353 2.0675 266.353H2.54016V217.182H2.0675Z" fill="url(#paint3_linear_1_2)"/>
</g>
<path d="M3.16211 74.9336H7.32809V70.0098H3.16211V74.9336Z" fill="#7D7E7F"/>
<path d="M3.16211 647.058H7.32809V74.9336H3.16211V647.058Z" fill="#EBEBEB"/>
<path d="M3.16211 651.984H7.32809V647.059H3.16211V651.984Z" fill="#7D7E7F"/>
<path d="M356.838 651.984H352.672V668.461C352.672 695.043 331.272 716.443 304.689 716.443H55.3105C28.7284 716.443 7.32809 695.043 7.32809 668.461V651.984H3.16211V666.281C3.16211 695.96 27.0558 719.853 56.7343 719.853H303.266C332.944 719.853 356.838 695.96 356.838 666.281V651.984Z" fill="#EBEBEB"/>
<path d="M356.838 647.059H352.672V651.984H356.838V647.059Z" fill="#7D7E7F"/>
<path d="M356.838 74.9336H352.672V647.058H356.838V74.9336Z" fill="#EBEBEB"/>
<path d="M356.838 70.0098H352.672V74.9336H356.838V70.0098Z" fill="#7D7E7F"/>
<path d="M56.7343 2.26562C27.0558 2.26562 3.16211 26.1593 3.16211 55.8379V70.0098H7.32809V54.2246C7.32809 27.6424 28.7284 6.24414 55.3105 6.24414H304.689C331.272 6.24414 352.672 27.6424 352.672 54.2246V70.0098H356.838V55.8379C356.838 26.1593 332.944 2.26562 303.266 2.26562H56.7343Z" fill="#EBEBEB"/>
<path d="M199.062 27.4464H161.562C160.058 27.4464 158.839 28.6656 158.839 30.1696C158.839 31.6736 160.058 32.8928 161.562 32.8928H199.062C200.566 32.8928 201.786 31.6736 201.786 30.1696C201.786 28.6656 200.566 27.4464 199.062 27.4464Z" fill="#1E1E1E"/>
<path d="M218.891 34.9018C221.698 34.9018 223.973 32.6263 223.973 29.8195C223.973 27.0126 221.698 24.7371 218.891 24.7371C216.084 24.7371 213.809 27.0126 213.809 29.8195C213.809 32.6263 216.084 34.9018 218.891 34.9018Z" fill="#2B2B2B"/>
<path d="M218.891 33.8916C221.14 33.8916 222.963 32.0684 222.963 29.8194C222.963 27.5704 221.14 25.7473 218.891 25.7473C216.642 25.7473 214.819 27.5704 214.819 29.8194C214.819 32.0684 216.642 33.8916 218.891 33.8916Z" fill="#0A0D13"/>
<path d="M218.891 32.9221C220.604 32.9221 221.994 31.533 221.994 29.8194C221.994 28.1059 220.604 26.7168 218.891 26.7168C217.177 26.7168 215.788 28.1059 215.788 29.8194C215.788 31.533 217.177 32.9221 218.891 32.9221Z" fill="#091427"/>
<g filter="url(#filter4_f_1_2)">
<path fill-rule="evenodd" clip-rule="evenodd" d="M216.755 27.7437C216.387 27.7824 215.864 28.3439 215.826 29.4477C215.787 30.5515 216.271 31.1518 216.542 31.1518C216.813 31.1518 217.936 29.5445 216.755 27.7437H216.755Z" fill="#235A91" fill-opacity="0.556075"/>
</g>
<g filter="url(#filter5_f_1_2)">
<path fill-rule="evenodd" clip-rule="evenodd" d="M219.397 27.3571C218.817 27.5357 218.705 28.4732 218.728 29.0089C218.75 29.5446 219.509 30.9509 220.424 30.6384C221.339 30.3259 221.496 29.1652 221.116 28.3839C220.737 27.6027 220.045 27.0446 219.397 27.3571Z" fill="#235A91" fill-opacity="0.556075"/>
</g>
<path d="M152.091 30.2879C152.091 31.345 151.672 32.3591 150.926 33.108C150.18 33.8568 149.168 34.2795 148.111 34.2834C147.053 34.2873 146.038 33.8721 145.286 33.1287C144.535 32.3853 144.108 31.3744 144.1 30.3173C144.093 29.2602 144.504 28.2431 145.245 27.4887C145.985 26.7344 146.995 26.3043 148.052 26.2926C149.109 26.2809 150.127 26.6887 150.884 27.4265C151.642 28.1643 152.075 29.1721 152.091 30.2291L148.096 30.2879H152.091Z" fill="#0F0F0F"/>
<path d="M129.433 30.3817C129.433 31.951 128.801 33.4563 127.676 34.568C126.55 35.6796 125.023 36.3071 123.428 36.3129C121.834 36.3186 120.302 35.7023 119.168 34.5988C118.035 33.4953 117.391 31.9946 117.38 30.4253C117.368 28.8561 117.989 27.3463 119.106 26.2265C120.223 25.1067 121.745 24.4682 123.34 24.4509C124.934 24.4335 126.471 25.0388 127.613 26.134C128.755 27.2293 129.409 28.7253 129.432 30.2944L123.406 30.3817H129.433Z" fill="#101010"/>
<path d="M250.953 29.7425C250.953 31.8519 250.107 33.8755 248.602 35.3698C247.097 36.8642 245.054 37.7076 242.921 37.7154C240.788 37.7232 238.739 36.8946 237.222 35.4113C235.706 33.9279 234.846 31.9106 234.83 29.8011C234.814 27.6917 235.644 25.6621 237.139 24.1568C238.633 22.6515 240.669 21.7932 242.802 21.7699C244.935 21.7466 246.99 22.5602 248.518 24.0325C250.045 25.5048 250.92 27.5158 250.952 29.6251L242.891 29.7425H250.953Z" fill="#0F0F0F"/>
</g>
<defs>
<filter id="filter0_f_1_2" x="356.92" y="168.059" width="3.07148" height="80.6072" filterUnits="userSpaceOnUse" color-interpolation-filters="sRGB">
<feFlood flood-opacity="0" result="BackgroundImageFix"/>
<feBlend mode="normal" in="SourceGraphic" in2="BackgroundImageFix" result="shape"/>
<feGaussianBlur stdDeviation="0.269824" result="effect1_foregroundBlur_1_2"/>
</filter>
<filter id="filter1_f_1_2" x="0.0083254" y="98.7068" width="3.07148" height="26.0695" filterUnits="userSpaceOnUse" color-interpolation-filters="sRGB">
<feFlood flood-opacity="0" result="BackgroundImageFix"/>
<feBlend mode="normal" in="SourceGraphic" in2="BackgroundImageFix" result="shape"/>
<feGaussianBlur stdDeviation="0.269824" result="effect1_foregroundBlur_1_2"/>
</filter>
<filter id="filter2_f_1_2" x="0.0083254" y="150.982" width="3.07148" height="50.25" filterUnits="userSpaceOnUse" color-interpolation-filters="sRGB">
<feFlood flood-opacity="0" result="BackgroundImageFix"/>
<feBlend mode="normal" in="SourceGraphic" in2="BackgroundImageFix" result="shape"/>
<feGaussianBlur stdDeviation="0.269824" result="effect1_foregroundBlur_1_2"/>
</filter>
<filter id="filter3_f_1_2" x="0.0083254" y="216.642" width="3.07148" height="50.25" filterUnits="userSpaceOnUse" color-interpolation-filters="sRGB">
<feFlood flood-opacity="0" result="BackgroundImageFix"/>
<feBlend mode="normal" in="SourceGraphic" in2="BackgroundImageFix" result="shape"/>
<feGaussianBlur stdDeviation="0.269824" result="effect1_foregroundBlur_1_2"/>
</filter>
<filter id="filter4_f_1_2" x="215.589" y="27.5094" width="1.93011" height="3.87653" filterUnits="userSpaceOnUse" color-interpolation-filters="sRGB">
<feFlood flood-opacity="0" result="BackgroundImageFix"/>
<feBlend mode="normal" in="SourceGraphic" in2="BackgroundImageFix" result="shape"/>
<feGaussianBlur stdDeviation="0.117104" result="effect1_foregroundBlur_1_2"/>
</filter>
<filter id="filter5_f_1_2" x="218.491" y="27.0346" width="3.05207" height="3.88278" filterUnits="userSpaceOnUse" color-interpolation-filters="sRGB">
<feFlood flood-opacity="0" result="BackgroundImageFix"/>
<feBlend mode="normal" in="SourceGraphic" in2="BackgroundImageFix" result="shape"/>
<feGaussianBlur stdDeviation="0.117104" result="effect1_foregroundBlur_1_2"/>
</filter>
<linearGradient id="paint0_linear_1_2" x1="357.46" y1="168.599" x2="357.46" y2="248.127" gradientUnits="userSpaceOnUse">
<stop stop-color="#CBCBCB" stop-opacity="0.27451"/>
<stop offset="0.04" stop-color="#CBCBCB"/>
<stop offset="0.96" stop-color="#CBCBCB"/>
<stop offset="1" stop-color="#CBCBCB" stop-opacity="0.275701"/>
</linearGradient>
<linearGradient id="paint1_linear_1_2" x1="2.54016" y1="99.2465" x2="2.54016" y2="124.237" gradientUnits="userSpaceOnUse">
<stop stop-color="#CBCBCB" stop-opacity="0.27451"/>
<stop offset="0.05" stop-color="#CBCBCB"/>
<stop offset="0.95" stop-color="#CBCBCB"/>
<stop offset="1" stop-color="#CBCBCB" stop-opacity="0.275701"/>
</linearGradient>
<linearGradient id="paint2_linear_1_2" x1="2.54016" y1="151.522" x2="2.54016" y2="200.693" gradientUnits="userSpaceOnUse">
<stop stop-color="#CBCBCB" stop-opacity="0.27451"/>
<stop offset="0.05" stop-color="#CBCBCB"/>
<stop offset="0.95" stop-color="#CBCBCB"/>
<stop offset="1" stop-color="#CBCBCB" stop-opacity="0.275701"/>
</linearGradient>
<linearGradient id="paint3_linear_1_2" x1="2.54016" y1="217.182" x2="2.54016" y2="266.353" gradientUnits="userSpaceOnUse">
<stop stop-color="#CBCBCB" stop-opacity="0.27451"/>
<stop offset="0.05" stop-color="#CBCBCB"/>
<stop offset="0.95" stop-color="#CBCBCB"/>
<stop offset="1" stop-color="#CBCBCB" stop-opacity="0.275701"/>
</linearGradient>
<clipPath id="clip0_1_2">
<rect width="360" height="722" fill="white"/>
</clipPath>
</defs>
</svg>
